<?xml version="1.0" encoding="utf-8"?>
<!-- Generator: Adobe Illustrator 25.0.0, SVG Export Plug-In . SVG Version: 6.00 Build 0)  -->
<svg version="1.1" id="_x31_2" xmlns="http://www.w3.org/2000/svg" xmlns:xlink="http://www.w3.org/1999/xlink" x="0px" y="0px"
	 viewBox="0 0 564.99 570.56" style="enable-background:new 0 0 564.99 570.56;" xml:space="preserve">
<style type="text/css">
	.st0{display:none;}
	.st1{display:inline;fill:#6DCFF6;}
	.st2{display:inline;fill:#00ADEF;}
	.st3{display:inline;fill:#ED1C24;}
	.st4{display:inline;fill:#FFFFFF;}
	.st5{display:inline;fill:#412C2A;}
	.st6{display:inline;fill:#B2B2B2;}
	.st7{display:inline;fill:#FF4843;}
	.st8{display:inline;fill:#FFD980;}
	.st9{display:inline;fill:#CCCCCC;}
	.st10{display:inline;fill:#565656;}
	.st11{display:inline;fill:#878787;}
	.st12{display:inline;fill:#0C7513;}
	.st13{display:inline;fill:#83C6C0;}
	.st14{display:inline;fill:#52B2AD;}
	.st15{display:inline;fill:#CCD6D6;}
	.st16{display:inline;fill:#636363;}
	.st17{display:inline;fill:#FFA22E;}
	.st18{display:inline;}
	.st19{fill:#353535;}
	.st20{fill:#70D7FC;}
	.st21{fill:#4BC6E8;}
	.st22{display:inline;fill:#1F1F21;}
	.st23{fill:#FFD506;}
	.st24{fill:#FC9B00;}
	.st25{display:inline;fill:#FC9B00;}
	.st26{display:inline;fill:#FFD506;}
	.st27{fill:#5E3006;}
	.st28{display:inline;fill:#353535;}
	.st29{display:inline;fill:#2D2B2A;}
	.st30{display:inline;fill:#1C1713;}
	.st31{fill:#C5CAD0;}
	.st32{fill:#B5B5B5;}
	.st33{fill:#FED504;}
	.st34{display:inline;fill:#7ACFEA;}
	.st35{display:inline;opacity:0.26;fill:#262262;}
	.st36{display:inline;fill:#2E3192;}
	.st37{display:inline;fill:#FFBE2C;}
	.st38{fill:#2E3192;}
	.st39{display:inline;fill:#FF9000;}
	.st40{display:inline;fill:#CDF1F7;}
	.st41{fill:#A8DBE7;}
	.st42{display:inline;fill:#2A71A9;}
	.st43{display:inline;fill:#A8DBE7;}
	.st44{display:inline;fill:#E20E0E;}
	.st45{display:inline;fill:#2E3C4F;}
	.st46{display:inline;fill:#80B6BF;}
	.st47{fill:#CDF1F7;}
	.st48{fill:#FDBC21;}
	.st49{fill:#AF1B08;}
	.st50{fill:#E5310E;}
	.st51{display:inline;fill:#FDBC21;}
	.st52{fill:#7ACFEA;}
	.st53{fill:#FBB040;}
	.st54{display:inline;fill:#57CBEA;}
	.st55{display:inline;fill:#1BA2D4;}
	.st56{display:inline;fill:#F42914;}
	.st57{display:inline;fill:#5B6668;}
	.st58{display:inline;fill:#5AD6F2;}
	.st59{fill:#3F3F3F;}
	.st60{display:inline;fill:#3C4344;}
	.st61{fill:#F21C00;}
	.st62{fill:#343A3A;}
	.st63{display:inline;fill:#C6C600;}
	.st64{fill:#6D6D6D;}
	.st65{fill:#999896;}
	.st66{fill:#FCA100;}
	.st67{display:inline;fill:#B6CECA;}
	.st68{display:inline;fill:#B2192C;}
	.st69{display:inline;fill:#C7E5E1;}
	.st70{display:inline;fill:#1DA5C7;}
	.st71{display:inline;fill:#D32432;}
	.st72{display:inline;fill:#A1B2B0;}
	.st73{display:inline;fill:#E1E1E1;}
	.st74{fill:#B6CECA;}
	.st75{fill:#B2192C;}
	.st76{fill:#C7E5E1;}
	.st77{fill:#FFFFFF;}
	.st78{fill:#1DA5C7;}
	.st79{fill:#D32432;}
	.st80{fill:#A1B2B0;}
	.st81{fill:#E1E1E1;}
</style>
<g>
	<path class="st74" d="M188.73,419.83c4.53-5.26,11.23-8.6,18.72-8.6c7.49,0,14.19,3.34,18.72,8.6c4.53-5.26,11.23-8.6,18.72-8.6
		c7.49,0,14.18,3.34,18.72,8.6c4.53-5.26,11.23-8.6,18.72-8.6c7.49,0,14.18,3.34,18.72,8.6c4.53-5.26,11.23-8.6,18.72-8.6
		c7.49,0,14.18,3.34,18.72,8.6c4.53-5.26,11.23-8.6,18.72-8.6c3.97,0,7.7,0.96,11.01,2.62c29.1-53.03,44.48-114.04,49.56-175.25
		c-121.61,13.84-207.66,86.02-240.13,117.7v56.15C181.98,413.86,185.81,416.44,188.73,419.83z"/>
	<path class="st74" d="M199.88,280.03c-7.61,0-13.77,6.17-13.77,13.77v21.38c5.71-6.44,14.29-15.53,25.43-25.89v-9.26H199.88z"/>
	<path class="st75" d="M177.64,325.23v31.06c32.47-31.68,118.51-103.86,240.13-117.7c1.33-15.98,1.95-31.97,1.94-47.84
		C270.99,203.43,177.64,325.23,177.64,325.23z"/>
	<path class="st76" d="M374.76,246.12c-98.86,23.38-168.63,82.37-197.13,110.17v38.51c33.18-1.06,67.93-9.76,93.23-20.83
		C326.65,350.06,357.45,301.19,374.76,246.12z"/>
	<path class="st74" d="M296.21,228.46h-79.86c-2.66,0-4.81,2.16-4.81,4.81v46.75v9.26l0,0c3.22-3,6.62-6.08,10.27-9.26
		C241,263.31,266.1,244.55,296.21,228.46z"/>
	<path class="st77" d="M389.36,296.26c0,12.88-10.44,23.31-23.31,23.31c-12.87,0-23.31-10.44-23.31-23.31
		c0-12.87,10.44-23.31,23.31-23.31C378.92,272.96,389.36,283.39,389.36,296.26z"/>
	<path class="st78" d="M383.53,296.26c0,9.66-7.83,17.48-17.48,17.48c-9.65,0-17.48-7.83-17.48-17.48c0-9.65,7.83-17.48,17.48-17.48
		C375.7,278.78,383.53,286.61,383.53,296.26z"/>
	<polygon class="st76" points="264.98,162.32 264.98,228.48 249.68,228.48 254.05,162.32 	"/>
	<path class="st79" d="M211.54,238.6v7.53h56.27c3.46-2.54,7.04-5.05,10.7-7.53H211.54z"/>
	<path class="st79" d="M296.21,228.46c-6.13,3.27-11.99,6.68-17.7,10.13c-4.1,2.48-8.1,4.99-11.97,7.53
		c-17.23,11.3-32.25,23.03-44.73,33.9c-3.65,3.18-7.05,6.27-10.27,9.26c-11.14,10.36-19.71,19.45-25.43,25.89
		c-5.57,6.28-8.48,10.06-8.48,10.06v31.06c28.5-27.81,98.27-86.8,197.13-110.17c5.19-16.5,9.16-33.55,12.24-50.66
		C353.14,202.19,322.74,214.3,296.21,228.46z"/>
	<polygon class="st74" points="280.32,228.48 264.98,228.48 264.98,162.32 275.96,162.32 	"/>
	<path class="st80" d="M300.68,255.31c0,5.07-4.11,9.18-9.18,9.18c-5.07,0-9.18-4.11-9.18-9.18c0-5.07,4.11-9.18,9.18-9.18
		C296.57,246.12,300.68,250.23,300.68,255.31z"/>
	<path class="st81" d="M298.39,255.31c0,3.8-3.08,6.89-6.89,6.89c-3.8,0-6.89-3.08-6.89-6.89c0-3.8,3.08-6.89,6.89-6.89
		C295.3,248.42,298.39,251.5,298.39,255.31z"/>
	<path class="st80" d="M328.44,244c0,5.07-4.11,9.18-9.18,9.18c-5.07,0-9.18-4.11-9.18-9.18c0-5.07,4.11-9.18,9.18-9.18
		C324.33,234.82,328.44,238.93,328.44,244z"/>
	<path class="st81" d="M326.14,244c0,3.8-3.08,6.89-6.89,6.89c-3.8,0-6.89-3.08-6.89-6.89c0-3.8,3.08-6.89,6.89-6.89
		C323.06,237.12,326.14,240.2,326.14,244z"/>
	<path class="st80" d="M355.98,234.82c0,5.07-4.11,9.18-9.18,9.18c-5.07,0-9.18-4.11-9.18-9.18c0-5.07,4.11-9.18,9.18-9.18
		C351.87,225.64,355.98,229.75,355.98,234.82z"/>
	<path class="st81" d="M353.69,234.82c0,3.8-3.08,6.89-6.89,6.89c-3.8,0-6.89-3.08-6.89-6.89c0-3.8,3.08-6.89,6.89-6.89
		C350.6,227.93,353.69,231.02,353.69,234.82z"/>
	<path class="st80" d="M383.95,228.46c0,5.07-4.11,9.18-9.18,9.18c-5.07,0-9.18-4.11-9.18-9.18c0-5.07,4.11-9.18,9.18-9.18
		C379.84,219.28,383.95,223.39,383.95,228.46z"/>
	<path class="st81" d="M381.65,228.46c0,3.8-3.08,6.89-6.89,6.89c-3.8,0-6.89-3.08-6.89-6.89s3.08-6.89,6.89-6.89
		C378.57,221.58,381.65,224.66,381.65,228.46z"/>
	<path class="st79" d="M276.6,152.8h-23.25c-1.33,0-2.42,1.08-2.42,2.42v4.69c0,1.34,1.08,2.42,2.42,2.42h23.25
		c1.33,0,2.42-1.08,2.42-2.42v-4.69C279.02,153.88,277.94,152.8,276.6,152.8z"/>
	<path class="st78" d="M394.63,411.22c-7.49,0-14.18,3.34-18.72,8.6c-2.13-2.48-4.76-4.5-7.7-5.98c-3.32-1.66-7.05-2.62-11.01-2.62
		c-7.49,0-14.18,3.34-18.72,8.6c-4.53-5.26-11.23-8.6-18.72-8.6c-7.49,0-14.19,3.34-18.72,8.6c-4.53-5.26-11.23-8.6-18.72-8.6
		c-7.49,0-14.19,3.34-18.72,8.6c-4.53-5.26-11.23-8.6-18.72-8.6c-7.49,0-14.18,3.34-18.72,8.6c-4.53-5.26-11.23-8.6-18.72-8.6
		c-7.49,0-14.18,3.34-18.72,8.6c-2.92-3.39-6.75-5.96-11.1-7.38c-2.4-0.78-4.96-1.22-7.62-1.22c-13.65,0-24.72,11.07-24.72,24.72
		c0,0.96,0.07,1.9,0.17,2.83c1.4-12.32,11.85-21.9,24.55-21.9c2.66,0,5.22,0.44,7.62,1.22c4.35,1.42,8.17,3.99,11.1,7.38
		c4.53-5.26,11.23-8.6,18.72-8.6c7.49,0,14.19,3.34,18.72,8.6c4.53-5.26,11.23-8.6,18.72-8.6c7.49,0,14.18,3.34,18.72,8.6
		c4.53-5.26,11.23-8.6,18.72-8.6c7.49,0,14.18,3.34,18.72,8.6c4.53-5.26,11.23-8.6,18.72-8.6c7.49,0,14.18,3.34,18.72,8.6
		c4.53-5.26,11.23-8.6,18.72-8.6c3,0,5.86,0.56,8.52,1.54c3.97,1.47,7.48,3.91,10.2,7.06c4.53-5.26,11.23-8.6,18.72-8.6
		c12.7,0,23.15,9.58,24.55,21.9c0.11-0.93,0.17-1.87,0.17-2.83C419.35,422.29,408.28,411.22,394.63,411.22z"/>
	<path class="st78" d="M170.01,433.2c7.49,0,14.18,3.34,18.72,8.6c4.53-5.26,11.23-8.6,18.72-8.6c7.49,0,14.19,3.34,18.72,8.6
		c4.53-5.26,11.23-8.6,18.72-8.6c7.49,0,14.18,3.34,18.72,8.6c4.53-5.26,11.23-8.6,18.72-8.6c7.49,0,14.18,3.34,18.72,8.6
		c4.53-5.26,11.23-8.6,18.72-8.6c7.49,0,14.18,3.34,18.72,8.6c4.53-5.26,11.23-8.6,18.72-8.6c7.49,0,14.18,3.34,18.72,8.6
		c4.53-5.26,11.23-8.6,18.72-8.6c12.7,0,23.15,9.57,24.55,21.89c0.11-0.93,0.17-1.87,0.17-2.82c0-13.65-11.07-24.72-24.72-24.72
		c-7.49,0-14.18,3.34-18.72,8.6c-4.53-5.26-11.23-8.6-18.72-8.6c-7.49,0-14.18,3.34-18.72,8.6c-4.53-5.26-11.23-8.6-18.72-8.6
		c-7.49,0-14.19,3.34-18.72,8.6c-4.53-5.26-11.23-8.6-18.72-8.6c-7.49,0-14.18,3.34-18.72,8.6c-4.53-5.26-11.23-8.6-18.72-8.6
		c-7.49,0-14.18,3.34-18.72,8.6c-4.53-5.26-11.23-8.6-18.72-8.6c-7.49,0-14.18,3.34-18.72,8.6c-4.53-5.26-11.23-8.6-18.72-8.6
		c-13.65,0-24.72,11.07-24.72,24.72c0,0.96,0.07,1.9,0.17,2.82C146.87,442.78,157.32,433.2,170.01,433.2z"/>
</g>
</svg>
