<?xml version="1.0" encoding="utf-8"?>
<!-- Generator: Adobe Illustrator 25.0.0, SVG Export Plug-In . SVG Version: 6.00 Build 0)  -->
<svg version="1.1" id="圖層_1" xmlns="http://www.w3.org/2000/svg" xmlns:xlink="http://www.w3.org/1999/xlink" x="0px" y="0px"
	 viewBox="0 0 1200 1024" style="enable-background:new 0 0 1200 1024;" xml:space="preserve">
<style type="text/css">
	.st0{fill:none;stroke:#FFFFFF;stroke-width:39.1025;stroke-miterlimit:10;}
	.st1{fill:none;stroke:#183265;stroke-width:30.0789;stroke-miterlimit:10;}
	.st2{fill:none;stroke:#FFFFFF;stroke-width:6.0158;stroke-miterlimit:10;}
	.st3{fill:#183265;}
</style>
<g>
	<path class="st0" d="M905.88,44.01H628.06h-6.33H343.92c0,31.75-28.27,57.49-63.14,57.49v185.92v60.82v164.01v21.91v141.6v83.23
		v163.51c34.87,0,63.14,25.74,63.14,57.49h277.82h6.33h277.82c0-31.75,28.27-57.49,63.14-57.49V758.99v-83.23v-141.6v-21.91V348.24
		v-60.82V101.5C934.15,101.5,905.88,75.76,905.88,44.01z"/>
	<path class="st1" d="M905.88,44.01H628.06h-6.33H343.92c0,31.75-28.27,57.49-63.14,57.49v185.92v60.82v164.01v21.91v141.6v83.23
		v163.51c34.87,0,63.14,25.74,63.14,57.49h277.82h6.33h277.82c0-31.75,28.27-57.49,63.14-57.49V758.99v-83.23v-141.6v-21.91V348.24
		v-60.82V101.5C934.15,101.5,905.88,75.76,905.88,44.01z"/>
	<path class="st2" d="M905.88,44.01H628.06h-6.33H343.92c0,31.75-28.27,57.49-63.14,57.49v185.92v60.82v164.01v21.91v141.6v83.23
		v163.51c34.87,0,63.14,25.74,63.14,57.49h277.82h6.33h277.82c0-31.75,28.27-57.49,63.14-57.49V758.99v-83.23v-141.6v-21.91V348.24
		v-60.82V101.5C934.15,101.5,905.88,75.76,905.88,44.01z"/>
	<path class="st3" d="M905.88,44.01H628.06h-6.33H343.92c0,31.75-28.27,57.49-63.14,57.49v185.92v60.82v164.01v21.91v141.6v83.23
		v163.51c34.87,0,63.14,25.74,63.14,57.49h277.82h6.33h277.82c0-31.75,28.27-57.49,63.14-57.49V758.99v-83.23v-141.6v-21.91V348.24
		v-60.82V101.5C934.15,101.5,905.88,75.76,905.88,44.01z"/>
</g>
</svg>
