<?xml version="1.0" encoding="utf-8"?>
<!-- Generator: Adobe Illustrator 25.0.0, SVG Export Plug-In . SVG Version: 6.00 Build 0)  -->
<svg version="1.1" xmlns="http://www.w3.org/2000/svg" xmlns:xlink="http://www.w3.org/1999/xlink" x="0px" y="0px"
	 viewBox="0 0 400 400" style="enable-background:new 0 0 400 400;" xml:space="preserve">
<style type="text/css">
	.st0{display:none;}
	.st1{display:inline;}
	.st2{clip-path:url(#SVGID_2_);fill:url(#SVGID_3_);}
	.st3{fill:#4FBCD8;}
	.st4{fill:#B9E4EF;}
	.st5{fill:#133763;}
	.st6{opacity:0.4;}
	.st7{fill:#09304E;}
	.st8{fill:#F6F0E8;}
	.st9{fill:#115F9B;}
	.st10{fill:#265A9D;}
	.st11{display:inline;fill:#FFB726;}
	.st12{opacity:0.4;fill:#F6F0E8;}
	.st13{opacity:0.4;fill:#115F9B;}
	.st14{opacity:0.4;fill:#133763;}
	.st15{opacity:0.4;fill:#265A9D;}
	.st16{display:none;opacity:0.4;}
	.st17{fill:#FAFCFB;}
	.st18{display:inline;fill:#FAFCFB;}
	.st19{display:inline;opacity:0.4;}
</style>
<g id="BACKGROUND" class="st0">
</g>
<g id="OBJECTS">
	<g>
		<polygon class="st8" points="244.94,347.38 156.1,347.38 159.61,307.71 241.42,307.71 		"/>
		<polygon class="st8" points="237.02,313.31 164.02,313.31 170.42,93.84 230.62,93.84 		"/>
		<polygon class="st9" points="167.6,183.86 167.05,209.77 233.99,209.77 233.43,183.86 		"/>
		<polygon class="st9" points="236.05,276.4 235.23,243.38 165.81,243.38 164.99,276.4 		"/>
		<rect x="151.25" y="117.12" class="st9" width="97.88" height="2.59"/>
		<path class="st9" d="M201.16,130.06h-0.98h-47.92c11.56,11.64,15.15,20.27,16.21,24.15h32.83h32.83
			c1.07-3.88,4.65-12.5,16.21-24.15H201.16z"/>
		<g>
			<rect x="155.13" y="119.71" class="st9" width="1.29" height="11.21"/>
			<rect x="159.87" y="119.71" class="st9" width="1.29" height="11.21"/>
			<rect x="164.61" y="119.71" class="st9" width="1.72" height="11.21"/>
			<rect x="169.36" y="119.71" class="st9" width="1.29" height="11.21"/>
			<rect x="174.1" y="119.71" class="st9" width="1.72" height="11.21"/>
			<rect x="179.27" y="119.71" class="st9" width="1.29" height="11.21"/>
			<rect x="184.02" y="119.71" class="st9" width="1.29" height="11.21"/>
			<rect x="188.76" y="119.71" class="st9" width="1.29" height="11.21"/>
			<rect x="193.07" y="119.71" class="st9" width="1.29" height="11.21"/>
			<rect x="197.82" y="119.71" class="st9" width="1.72" height="11.21"/>
			<rect x="203.42" y="119.71" class="st9" width="0.86" height="11.21"/>
			<rect x="208.16" y="119.71" class="st9" width="0.86" height="11.21"/>
			<rect x="212.91" y="119.71" class="st9" width="1.29" height="11.21"/>
			<rect x="217.22" y="119.71" class="st9" width="1.29" height="11.21"/>
			<rect x="221.96" y="119.71" class="st9" width="1.72" height="11.21"/>
			<rect x="226.71" y="119.71" class="st9" width="1.72" height="11.21"/>
			<rect x="231.88" y="119.71" class="st9" width="1.29" height="11.21"/>
			<rect x="237.05" y="119.71" class="st9" width="0.86" height="11.21"/>
			<rect x="241.37" y="119.71" class="st9" width="1.29" height="11.21"/>
			<rect x="246.11" y="119.71" class="st9" width="1.29" height="11.21"/>
		</g>
		<path class="st9" d="M211.72,347.55v-24.94c0-6.19-5.02-11.21-11.21-11.21c-6.19,0-11.21,5.02-11.21,11.21v24.94H211.72z"/>
		<path class="st5" d="M202.48,330.42c0,1.08-0.88,1.96-1.96,1.96c-1.08,0-1.96-0.88-1.96-1.96c0-1.08,0.88-1.96,1.96-1.96
			C201.6,328.46,202.48,329.34,202.48,330.42z"/>
		<g>
			<rect x="193.5" y="281.41" class="st3" width="14.23" height="23.28"/>
			<rect x="192.64" y="303.83" class="st5" width="15.52" height="1.72"/>
		</g>
		<g>
			<rect x="193.5" y="215" class="st3" width="14.23" height="23.28"/>
			<rect x="192.64" y="237.42" class="st5" width="15.52" height="1.72"/>
		</g>
		<g>
			<rect x="193.5" y="157.22" class="st3" width="14.23" height="23.28"/>
			<rect x="192.64" y="179.64" class="st5" width="15.52" height="1.72"/>
		</g>
		<path class="st8" d="M231.92,93.8c-5.07-12.36-17.22-21.06-31.4-21.06c-14.18,0-26.33,8.7-31.4,21.06H231.92z"/>
		<path class="st10" d="M233.6,94.05c0,1.07-0.87,1.94-1.94,1.94H170c-1.07,0-1.94-0.87-1.94-1.94l0,0c0-1.07,0.87-1.94,1.94-1.94
			h61.66C232.74,92.11,233.6,92.98,233.6,94.05L233.6,94.05z"/>
		<path class="st5" d="M208.18,105.68c0,4.18-3.39,7.57-7.57,7.57c-4.18,0-7.57-3.39-7.57-7.57c0-4.18,3.39-7.57,7.57-7.57
			C204.79,98.11,208.18,101.5,208.18,105.68z"/>
		<g class="st0">
			<polygon class="st11" points="27.71,60 27.71,147.33 202.58,104.84 			"/>
			<polygon class="st11" points="373.1,60.87 197.57,104.84 373.1,146.51 			"/>
		</g>
		<polygon class="st12" points="200.44,347.38 244.94,347.38 241.42,307.71 200.44,307.71 		"/>
		<polygon class="st12" points="236.86,307.94 230.62,93.84 200.44,93.84 200.44,307.94 		"/>
		<polygon class="st13" points="200.44,209.77 233.99,209.77 233.43,183.86 200.44,183.86 		"/>
		<polygon class="st13" points="200.44,276.4 236.05,276.4 235.23,243.38 200.44,243.38 		"/>
		<rect x="200.44" y="117.12" class="st13" width="48.69" height="2.59"/>
		<path class="st13" d="M200.44,130.06v24.15h33.7c1.07-3.88,4.65-12.5,16.21-24.15H200.44z"/>
		<g class="st6">
			<rect x="203.42" y="119.71" class="st9" width="0.86" height="11.21"/>
			<rect x="208.16" y="119.71" class="st9" width="0.86" height="11.21"/>
			<rect x="212.91" y="119.71" class="st9" width="1.29" height="11.21"/>
			<rect x="217.22" y="119.71" class="st9" width="1.29" height="11.21"/>
			<rect x="221.96" y="119.71" class="st9" width="1.72" height="11.21"/>
			<rect x="226.71" y="119.71" class="st9" width="1.72" height="11.21"/>
			<rect x="231.88" y="119.71" class="st9" width="1.29" height="11.21"/>
			<rect x="237.05" y="119.71" class="st9" width="0.86" height="11.21"/>
			<rect x="241.37" y="119.71" class="st9" width="1.29" height="11.21"/>
			<rect x="246.11" y="119.71" class="st9" width="1.29" height="11.21"/>
		</g>
		<path class="st13" d="M200.52,311.4c-0.03,0-0.05,0-0.08,0v36.14h11.28v-24.94C211.72,316.42,206.71,311.4,200.52,311.4z"/>
		<path class="st14" d="M200.52,328.46c-0.03,0-0.05,0.01-0.08,0.01v3.9c0.03,0,0.05,0.01,0.08,0.01c1.08,0,1.96-0.88,1.96-1.96
			C202.48,329.34,201.6,328.46,200.52,328.46z"/>
		<g class="st6">
			<rect x="200.44" y="281.41" class="st3" width="7.29" height="23.28"/>
			<rect x="200.44" y="303.83" class="st5" width="7.72" height="1.72"/>
		</g>
		<g class="st6">
			<rect x="200.44" y="215" class="st3" width="7.29" height="23.28"/>
			<rect x="200.44" y="237.42" class="st5" width="7.72" height="1.72"/>
		</g>
		<g class="st6">
			<rect x="200.44" y="157.22" class="st3" width="7.29" height="23.28"/>
			<rect x="200.44" y="179.64" class="st5" width="7.72" height="1.72"/>
		</g>
		<path class="st12" d="M200.44,93.8h31.48c-5.07-12.36-17.22-21.06-31.4-21.06c-0.03,0-0.05,0-0.08,0V93.8z"/>
		<path class="st15" d="M231.66,92.11h-31.22v3.88h31.22c1.07,0,1.94-0.87,1.94-1.94C233.6,92.98,232.74,92.11,231.66,92.11z"/>
		<path class="st14" d="M200.61,98.11c-0.06,0-0.11,0.01-0.16,0.01v15.13c0.05,0,0.11,0.01,0.16,0.01c4.18,0,7.57-3.39,7.57-7.57
			C208.18,101.5,204.79,98.11,200.61,98.11z"/>
		<g class="st16">
			<polygon class="st11" points="200.44,104.29 200.44,105.36 202.58,104.84 			"/>
			<polygon class="st11" points="200.44,104.12 200.44,105.52 373.1,146.51 373.1,60.87 			"/>
		</g>
	</g>
</g>
<g id="DESIGNED_BY_FREEPIK" class="st0">
</g>
</svg>
