<?xml version="1.0" encoding="utf-8"?>
<!-- Generator: Adobe Illustrator 25.0.0, SVG Export Plug-In . SVG Version: 6.00 Build 0)  -->
<svg version="1.1" id="Layer_1" xmlns="http://www.w3.org/2000/svg" xmlns:xlink="http://www.w3.org/1999/xlink" x="0px" y="0px"
	 viewBox="0 0 400 400" style="enable-background:new 0 0 400 400;" xml:space="preserve">
<style type="text/css">
	.st0{fill:#FFC612;}
	.st1{fill:#F16A23;}
	.st2{fill:#FFFFFF;}
	.st3{fill:#DF5426;}
	.st4{fill:#231F20;}
	.st5{fill:#BF4527;}
	.st6{fill:#059848;}
	.st7{fill:#C9DB2C;}
	.st8{fill:#D82B3F;}
	.st9{clip-path:url(#SVGID_2_);fill:#F59198;}
	.st10{clip-path:url(#SVGID_2_);fill:#ED5B68;}
	.st11{fill:#ED5B68;}
	.st12{fill:#759BD1;}
	.st13{fill:#4870B7;}
	.st14{fill:#1F4A88;}
	.st15{fill:#F0669B;}
	.st16{fill:#EF426D;}
	.st17{fill:#D62155;}
	.st18{fill:#F05786;}
	.st19{fill:#F36D21;}
	.st20{fill:#7F632C;}
	.st21{fill:#533C15;}
	.st22{fill:#88C540;}
	.st23{fill:#52A145;}
	.st24{fill:#FDEBA7;}
	.st25{fill:#218ACB;}
	.st26{fill:#FFF200;}
	.st27{fill:#F8971D;}
	.st28{fill:#FEBC12;}
	.st29{fill:#5BBBEA;}
	.st30{fill:#88C441;}
	.st31{fill:#FFD86C;}
	.st32{clip-path:url(#SVGID_4_);fill:#D07828;}
	.st33{clip-path:url(#SVGID_4_);fill:#AD5926;}
	.st34{fill:#EE974F;}
	.st35{fill:#AD5926;}
	.st36{fill:#69A142;}
	.st37{fill:#D76D27;}
	.st38{fill:#F78F23;}
	.st39{fill:#D07828;}
	.st40{fill:#514E4D;}
	.st41{fill:#0EA94B;}
	.st42{fill:#443E3A;}
	.st43{fill:#707071;}
	.st44{fill:#666565;}
	.st45{fill:#CDECF7;}
	.st46{fill:#97D9F0;}
	.st47{fill:#F47833;}
	.st48{fill:#E26727;}
	.st49{fill:none;}
	.st50{fill:#ED7A23;}
	.st51{fill:#D06128;}
	.st52{fill:#F05681;}
	.st53{fill:#F493B2;}
	.st54{fill:#E96A98;}
	.st55{fill:#F175AB;}
	.st56{fill:#F6B1CF;}
	.st57{fill:#CFCECE;}
	.st58{fill:#DEDDDD;}
	.st59{fill:#E9A856;}
	.st60{fill:#EBBCD6;}
	.st61{fill:#C25396;}
	.st62{fill:#DD87B8;}
	.st63{fill:#FAD176;}
	.st64{fill:#FAA93D;}
	.st65{fill:#F6851F;}
	.st66{fill:#F9CE1B;}
	.st67{clip-path:url(#SVGID_6_);fill:#571D51;}
	.st68{clip-path:url(#SVGID_6_);fill:#AB4A9C;}
	.st69{fill:#AB4A9C;}
	.st70{clip-path:url(#SVGID_8_);fill:#F16A23;}
	.st71{clip-path:url(#SVGID_8_);fill:#FFC612;}
</style>
<g>
	<path class="st50" d="M320.23,179.02c-4.77,5.69-12.6,10.73-18.55,14.29c-13.58,8.07-44.5,16.08-40.95,36.6
		c1.7,9.83,10.66,21.05,17.55,31.47c2.52,3.79,4.73,7.45,6.25,10.93c3.68,8.39,11.19,23.6,7.94,32.29
		c-2.27,6.04-5.38,9.55-9.03,11.28c-13.78,6.54-35.26-12.44-48.08-16.1c-14.01-4.01-29.51-18.42-44.05-12.2
		c-8.12,3.48-31.42,19.81-50.83,27.05c0,0,0,0-0.02,0c-16.55,6.16-30.24,5.67-29.28-15.06c0.09-2.08,0.36-4.26,0.78-6.49
		c3.46-18.96,17.29-42.2,26.18-57.32c7.52-12.84-0.27-15.66-13.63-20.97c-11.51-4.57-47.59-16.75-53.93-32.4
		c-1.89-4.66-1.14-9.64,3.72-14.81c8.87-9.45,23.49-11.77,36.29-13.98c1.99-0.34,3.95-0.69,5.84-1.05
		c14.5-2.79,32.47,3.19,41.4-11.82c10.68-17.95,15.5-38.11,25.52-55.94c0.02-0.02,0.02-0.05,0.04-0.07c1.2-2.12,2.45-4.19,3.83-6.24
		c11.38-17.13,24-13.63,30.8,1.74c0,0,0,0.02,0,0.04c0.74,1.67,1.41,3.43,2.01,5.35c4.77,15.45,4.95,32.94,9.97,48.49
		c5.73,17.75,17.62,15.25,34.82,16.1c10.37,0.51,24.06-0.11,35.86,1.94c0.02,0,0.02,0,0.04,0c5.75,1.02,11.02,2.65,15.3,5.35
		C327.29,164.57,325.91,172.25,320.23,179.02z"/>
	<path class="st50" d="M320.23,179.02c-4.77,5.69-12.6,10.73-18.55,14.29c-13.58,8.07-44.5,16.08-40.95,36.6
		c1.7,9.83,10.66,21.05,17.55,31.47c-2.08-2.18-4.28-4.3-6.6-6.42c-6-5.44-13.12-10.33-17.93-16.75
		c-10.73-14.36-1.61-29.98,13.16-36.17c11.76-4.91,24.07-8.36,35.68-13.6C307.85,186.07,315.05,183.26,320.23,179.02z"/>
	<path class="st50" d="M300.69,152.11c-4.64,0.27-9.32,0.4-13.85,0.42c-13.81,0.09-27.52,4.88-41.26,4.1
		c-10.39-0.58-25.78-3.93-29.77-15.08c-4.22-11.78,1.49-26.01,2.03-37.96c0.27-5.96-1.14-15.63,0.18-23.35
		c0.74,1.67,1.41,3.43,2.01,5.35c4.77,15.45,4.95,32.94,9.97,48.49c5.73,17.75,17.62,15.25,34.82,16.1
		C275.2,150.68,288.89,150.07,300.69,152.11z"/>
	<path class="st50" d="M183.37,84.77c-1.94,5.06-3.23,10.17-4.04,15.57c-1.92,12.65-3.44,26.47-7.7,38.58
		c-5.66,16.13-19.45,18.71-34.95,18.15c-8.76-0.33-17.4-2.43-26.07-3.48c1.99-0.34,3.95-0.69,5.84-1.05
		c14.5-2.79,32.47,3.19,41.4-11.82C168.52,122.76,173.34,102.61,183.37,84.77z"/>
	<path class="st50" d="M143.25,247.25c-7.54,9.55-15.68,18.82-22.3,29.02c-3.5,5.4-5.76,11.28-8.97,16.79
		c3.46-18.96,17.29-42.2,26.18-57.32c7.52-12.84-0.27-15.66-13.63-20.97c-11.51-4.57-47.59-16.75-53.93-32.4
		c4.26,2.54,9.23,4.19,13.94,5.96c12,4.55,23.98,9.21,36.09,13.49c8.28,2.96,18.74,4.35,25.71,9.63
		C158.44,220.6,150.48,238.08,143.25,247.25z"/>
	<path class="st50" d="M283.45,315.87c-13.78,6.54-35.26-12.44-48.08-16.1c-14.01-4.01-29.51-18.42-44.05-12.2
		c-8.12,3.48-31.42,19.81-50.83,27.05c2.48-2.05,4.66-3.95,6.31-5.26c15.05-11.95,28.57-27.74,44.98-37.63
		c11.11-6.71,22.15-6.63,31.18,3.17c7.9,8.59,15.52,16.7,25.38,23.13c8.97,5.84,17.6,10.17,27.61,14.03
		C278.45,313.02,281.11,314.29,283.45,315.87z"/>
	<path class="st51" d="M320.23,179.02c-4.77,5.69-12.6,10.73-18.55,14.29c-13.58,8.07-44.5,16.08-40.95,36.6
		c1.7,9.83,10.66,21.05,17.55,31.47c-2.08-2.18-4.28-4.3-6.6-6.42c-6-5.44-13.12-10.33-17.93-16.75
		c-10.73-14.36-1.61-29.98,13.16-36.17c11.76-4.91,24.07-8.36,35.68-13.6C307.85,186.07,315.05,183.26,320.23,179.02z"/>
	<path class="st51" d="M300.69,152.11c-4.64,0.27-9.32,0.4-13.85,0.42c-13.81,0.09-27.52,4.88-41.26,4.1
		c-10.39-0.58-25.78-3.93-29.77-15.08c-4.22-11.78,1.49-26.01,2.03-37.96c0.27-5.96-1.14-15.63,0.18-23.35
		c0.74,1.67,1.41,3.43,2.01,5.35c4.77,15.45,4.95,32.94,9.97,48.49c5.73,17.75,17.62,15.25,34.82,16.1
		C275.2,150.68,288.89,150.07,300.69,152.11z"/>
	<path class="st51" d="M183.37,84.77c-1.94,5.06-3.23,10.17-4.04,15.57c-1.92,12.65-3.44,26.47-7.7,38.58
		c-5.66,16.13-19.45,18.71-34.95,18.15c-8.76-0.33-17.4-2.43-26.07-3.48c1.99-0.34,3.95-0.69,5.84-1.05
		c14.5-2.79,32.47,3.19,41.4-11.82C168.52,122.76,173.34,102.61,183.37,84.77z"/>
	<path class="st51" d="M143.25,247.25c-7.54,9.55-15.68,18.82-22.3,29.02c-3.5,5.4-5.76,11.28-8.97,16.79
		c3.46-18.96,17.29-42.2,26.18-57.32c7.52-12.84-0.27-15.66-13.63-20.97c-11.51-4.57-47.59-16.75-53.93-32.4
		c4.26,2.54,9.23,4.19,13.94,5.96c12,4.55,23.98,9.21,36.09,13.49c8.28,2.96,18.74,4.35,25.71,9.63
		C158.44,220.6,150.48,238.08,143.25,247.25z"/>
	<path class="st51" d="M283.45,315.87c-13.78,6.54-35.26-12.44-48.08-16.1c-14.01-4.01-29.51-18.42-44.05-12.2
		c-8.12,3.48-31.42,19.81-50.83,27.05c2.48-2.05,4.66-3.95,6.31-5.26c15.05-11.95,28.57-27.74,44.98-37.63
		c11.11-6.71,22.15-6.63,31.18,3.17c7.9,8.59,15.52,16.7,25.38,23.13c8.97,5.84,17.6,10.17,27.61,14.03
		C278.45,313.02,281.11,314.29,283.45,315.87z"/>
	<path class="st51" d="M197.14,126.95c6.42-0.41,7.04-9.2,1.36-11.48C189.57,111.87,188.09,127.53,197.14,126.95z"/>
	<path class="st51" d="M197.71,158.04c9.43-0.61,10.35-13.51,2.01-16.87C186.59,135.89,184.41,158.9,197.71,158.04z"/>
	<g>
		<path class="st51" d="M307.56,171.29c1.2,3.88,6.69,2.97,7.26-0.86C315.71,164.4,305.87,165.81,307.56,171.29z"/>
		<path class="st51" d="M285.56,173.32c1.46,4.72,8.13,3.61,8.82-1.04C295.46,164.96,283.5,166.67,285.56,173.32z"/>
		<path class="st51" d="M265.39,177.9c1.9,6.14,10.59,4.7,11.48-1.36C278.28,167.01,262.7,169.24,265.39,177.9z"/>
		<path class="st51" d="M235.29,185.72c2.79,9.02,15.56,6.9,16.87-1.99C254.23,169.73,231.35,172.99,235.29,185.72z"/>
	</g>
	<g>
		<path class="st51" d="M96.33,169.93c0.38-4.05-5.04-5.32-7.03-2C86.16,173.15,95.79,175.64,96.33,169.93z"/>
		<path class="st51" d="M117.42,176.52c0.47-4.91-6.12-6.46-8.54-2.43C105.07,180.42,116.76,183.45,117.42,176.52z"/>
		<path class="st51" d="M137.8,180.05c0.61-6.4-7.97-8.41-11.12-3.16C121.72,185.14,136.95,189.08,137.8,180.05z"/>
		<path class="st51" d="M168.59,184.41c0.89-9.4-11.7-12.36-16.34-4.65C144.96,191.89,167.33,197.68,168.59,184.41z"/>
	</g>
	<g>
		<path class="st51" d="M275.19,296.85c-2.72,3.02,0.87,7.27,4.45,5.8C285.28,300.34,279.04,292.59,275.19,296.85z"/>
		<path class="st51" d="M262.19,278.98c-3.31,3.67,1.06,8.83,5.4,7.04C274.44,283.21,266.86,273.81,262.19,278.98z"/>
		<path class="st51" d="M247.95,263.98c-4.31,4.77,1.37,11.5,7.04,9.17C263.89,269.5,254.02,257.25,247.95,263.98z"/>
		<path class="st51" d="M225.84,242.12c-6.33,7.01,2.02,16.9,10.34,13.48C249.27,250.21,234.77,232.22,225.84,242.12z"/>
	</g>
	<g>
		<path class="st51" d="M130.51,294.58c-3.18-2.54-7.21,1.3-5.52,4.79C127.64,304.85,134.99,298.16,130.51,294.58z"/>
		<path class="st51" d="M147.58,280.53c-3.86-3.08-8.75,1.58-6.71,5.81C144.08,293.01,153.02,284.88,147.58,280.53z"/>
		<path class="st51" d="M161.7,265.42c-5.02-4.01-11.4,2.06-8.74,7.57C157.15,281.67,168.78,271.08,161.7,265.42z"/>
		<path class="st51" d="M182.2,242.05c-7.38-5.9-16.75,3.03-12.84,11.12C175.52,265.92,192.62,250.36,182.2,242.05z"/>
	</g>
	<path class="st51" d="M180.04,191.36c8.7,4.23,9.05,14.41,8.3,22.89c-0.23,0.22-0.25,0.2-0.05-0.05
		c9.62-1.82,16.36,2.19,22.62,10.2c-5.37-10.97,0.2-23.84,8.35-31.71c-13.45,0.49-18.65-8.91-22.95-19.85
		c0.76,4.66-2.06,8.49-4.82,11.89c-1.34,1.65-2.98,3.65-4.82,4.84c-0.96,0.62-1.96,1.2-3.02,1.68c-2.32,1.04-1.18,0.06-1.21,0.12
		H180.04z"/>
</g>
</svg>
