<?xml version="1.0" encoding="utf-8"?>
<!-- Generator: Adobe Illustrator 25.0.0, SVG Export Plug-In . SVG Version: 6.00 Build 0)  -->
<svg version="1.1" id="Layer_1" xmlns="http://www.w3.org/2000/svg" xmlns:xlink="http://www.w3.org/1999/xlink" x="0px" y="0px"
	 viewBox="0 0 400 400" style="enable-background:new 0 0 400 400;" xml:space="preserve">
<style type="text/css">
	.st0{fill:#FFC612;}
	.st1{fill:#F16A23;}
	.st2{fill:#FFFFFF;}
	.st3{fill:#DF5426;}
	.st4{fill:#231F20;}
	.st5{fill:#BF4527;}
	.st6{fill:#059848;}
	.st7{fill:#C9DB2C;}
	.st8{fill:#D82B3F;}
	.st9{clip-path:url(#SVGID_2_);fill:#F59198;}
	.st10{clip-path:url(#SVGID_2_);fill:#ED5B68;}
	.st11{fill:#ED5B68;}
	.st12{fill:#759BD1;}
	.st13{fill:#4870B7;}
	.st14{fill:#1F4A88;}
	.st15{fill:#F0669B;}
	.st16{fill:#EF426D;}
	.st17{fill:#D62155;}
	.st18{fill:#F05786;}
	.st19{fill:#F36D21;}
	.st20{fill:#7F632C;}
	.st21{fill:#533C15;}
	.st22{fill:#88C540;}
	.st23{fill:#52A145;}
	.st24{fill:#FDEBA7;}
	.st25{fill:#218ACB;}
	.st26{fill:#FFF200;}
	.st27{fill:#F8971D;}
	.st28{fill:#FEBC12;}
	.st29{fill:#5BBBEA;}
	.st30{fill:#88C441;}
	.st31{fill:#FFD86C;}
	.st32{clip-path:url(#SVGID_4_);fill:#D07828;}
	.st33{clip-path:url(#SVGID_4_);fill:#AD5926;}
	.st34{fill:#EE974F;}
	.st35{fill:#AD5926;}
	.st36{fill:#69A142;}
	.st37{fill:#D76D27;}
	.st38{fill:#F78F23;}
	.st39{fill:#D07828;}
	.st40{fill:#514E4D;}
	.st41{fill:#0EA94B;}
	.st42{fill:#443E3A;}
	.st43{fill:#707071;}
	.st44{fill:#666565;}
	.st45{fill:#CDECF7;}
	.st46{fill:#97D9F0;}
	.st47{fill:#F47833;}
	.st48{fill:#E26727;}
	.st49{fill:none;}
	.st50{fill:#ED7A23;}
	.st51{fill:#D06128;}
	.st52{fill:#F05681;}
	.st53{fill:#F493B2;}
	.st54{fill:#E96A98;}
	.st55{fill:#F175AB;}
	.st56{fill:#F6B1CF;}
	.st57{fill:#CFCECE;}
	.st58{fill:#DEDDDD;}
	.st59{fill:#E9A856;}
	.st60{fill:#EBBCD6;}
	.st61{fill:#C25396;}
	.st62{fill:#DD87B8;}
	.st63{fill:#FAD176;}
	.st64{fill:#FAA93D;}
	.st65{fill:#F6851F;}
	.st66{fill:#F9CE1B;}
	.st67{clip-path:url(#SVGID_6_);fill:#571D51;}
	.st68{clip-path:url(#SVGID_6_);fill:#AB4A9C;}
	.st69{fill:#AB4A9C;}
	.st70{clip-path:url(#SVGID_8_);fill:#F16A23;}
	.st71{clip-path:url(#SVGID_8_);fill:#FFC612;}
</style>
<g>
	<g>
		<g>
			<path class="st64" d="M324.04,231.08c-13.24-8.05-30-16.66-39.58-29.32c15.57-3.03,36.12-19.04,46.76-30.03
				c14.84-15.32,23.71-32.42,30.17-52.5c-8.31-4.7-23.02,5.42-30.99,8.54c-12.13,4.75-24.46,7.09-37.25,8.39
				c-16.89,1.72-38.9,0.67-52.75,6.41l-6.03-7.5c-8.76-7.45-29.08-46.6-42.49-42.32c-10.64,3.4-11.43,47.77-12.77,58.22
				c-7.95,1.52-15.82,6-24.06,7.95c-13.25,3.14-27.63,3.75-41.25,4.58c-17.19,1.05-51.6-0.3-65.21,11.99
				c34.76,29.73,83.99,23.27,124.1,35.88c-9.07,26.52-28.82,46.19-43.5,69.4c-14.73,23.28,14.33,21.54,30.51,15.95
				c21.22-7.33,44.88-23.86,59.21-41.17c4.81-5.8,6.51-11.44,14.63-12.06c10.02-0.78,22.98,9.51,31.48,13.67
				c27.9,13.64,73.98,27.63,103.84,12.81C367.41,257.21,334.77,237.6,324.04,231.08z"/>
			<path class="st65" d="M187.34,178.48c-40.89,1.51-93.17,11.57-128.67-8.75c-3.96,1.48-7.41,3.35-10.06,5.75
				c34.56,29.56,84.11,23.56,124.1,35.88C180.75,202.27,185.82,191.33,187.34,178.48z"/>
			<path class="st65" d="M324.01,151.14c-22.51,12.86-45.02,25.73-70.75,24.12c9.37,10.7,20.71,17.29,31.2,26.5
				c15.39-3.65,36.42-19.36,46.76-30.03c14.84-15.32,23.71-32.42,30.17-52.5c-1.19-0.67-2.51-1.01-3.92-1.14
				C349.33,132,337.22,143.88,324.01,151.14z"/>
			<path class="st65" d="M190.45,93.51c-8.7,6.33-10.17,44.73-11.34,57.45c3.07-1.22,5.72-5.35,6.62-6.25
				C194.37,128.29,195.11,110.47,190.45,93.51z"/>
			<path class="st65" d="M365.42,262.62c-46.18,13.76-96.78-28.43-133.56-58.41c-0.38,1.37-0.63,2.62-0.79,3.85
				c-1.76,4.38-3.21,8.95-3.34,8.21c-4.82,9.65-3.42,8.84-9.85,18.49c-1.61,3.22-4.82,8.04-6.43,11.26
				c-19.8,28.94-48.26,53.53-85.37,49.21c4.21,7.47,22.15,5.45,33.62,1.49c21.22-7.33,44.88-23.86,59.21-41.17
				c4.22-5.09,6.05-10.05,11.92-11.61c0.23-1.52,0.42-3.05,0.6-4.58c-0.17,1.53-0.37,3.05-0.6,4.58c0.82-0.22,1.72-0.37,2.71-0.45
				c10.02-0.78,22.98,9.51,31.48,13.67c27.9,13.64,73.98,27.63,103.84,12.81C368.61,267.68,367.35,265.2,365.42,262.62z
				 M232.25,226.52c0-0.22,0.01-0.43,0.01-0.65C232.26,226.09,232.26,226.3,232.25,226.52z M231.67,236.91
				c0.07-0.7,0.14-1.39,0.2-2.09C231.82,235.52,231.74,236.21,231.67,236.91z M232.08,231.52c0.02-0.4,0.05-0.79,0.07-1.19
				C232.13,230.73,232.1,231.12,232.08,231.52z M232.02,217c0,0.02,0,0.03,0,0.05C232.02,217.03,232.02,217.01,232.02,217z
				 M232.22,221.43c0,0.09,0,0.18,0.01,0.27C232.23,221.61,232.23,221.52,232.22,221.43z"/>
		</g>
		<path class="st66" d="M158.67,260.26c-2.77,0.92-12.67,7.96-7.3,11.12c5.21,3.07,13.47-4.97,11.97-10.29
			c-0.78-2.75-3.69-2.23-5.24-0.45L158.67,260.26z"/>
		<path class="st66" d="M181.13,231.31c-2.77,0.92-12.67,7.96-7.3,11.12c5.21,3.07,13.47-4.97,11.97-10.29
			c-0.77-2.75-3.69-2.23-5.24-0.45L181.13,231.31z"/>
		<path class="st66" d="M205.75,198.82c2.83,5.08-2.53,11.56-6.17,14.63c-1.39,1.18-4.9,4.33-6.9,3.81
			c-3.04-0.8-1.32-7.13-0.34-8.97c1.29-2.41,2.47-4.76,4.15-6.92C198.66,198.58,203.02,193.92,205.75,198.82z"/>
		<path class="st66" d="M211.25,161.79c1.95-1.24,10.3-0.13,10.65,3.36c-0.9-4.95,8.49-6.57,11.44-7.73
			c-2.88-0.63-4.95-1.23-7.32-3.16c-1.11-0.9-3.45-2.33-3.56-3.9c-2.33,2.49-6.04,6.16-10.03,4.88c0.92,2.34-1.29,4.41-1.78,6.56
			H211.25z"/>
		<path class="st66" d="M260.81,198.61c2.06,2.24,4.28,7.67-0.75,7.5c-3.2-0.1-9.25-3.14-9.95-6.61c-0.43-2.13,1.14-4.17,3.12-4.31
			C255.98,195,259,196.65,260.81,198.61z"/>
		<path class="st66" d="M277.45,218.42c-0.7-2.33,1.86-3.55,3.89-3.13c2.2,0.46,5.07,2.36,6.12,4.38
			C289.92,224.44,278.88,223.16,277.45,218.42z"/>
		<path class="st66" d="M309.85,233.04c2.63,0.03,9.77,4.59,6.96,7.87c-2.25,2.62-8.64-2.62-9.62-4.75
			C306.27,234.15,307.71,233.02,309.85,233.04z"/>
		<path class="st66" d="M276.22,150.86c3.24-4.87-8.21-3.84-10.14-3.55c-2.06,0.31-6.12,1.29-3.91,4.07
			c1.75,2.19,5.56,2.23,7.99,1.68C271.68,152.72,275.29,152.26,276.22,150.86z"/>
		<path class="st66" d="M295.2,144.92c2.68,1.65,6.87,1.67,9.66,0.59c1.47-0.58,2.99-0.89,2.73-2.77c-0.41-2.9-4.49-1.37-6.31-1.15
			C300.99,141.62,292.65,143.35,295.2,144.92z"/>
		<path class="st66" d="M322.43,135.77c2.1,1.29,5.38,1.31,7.56,0.46c1.15-0.45,2.34-0.7,2.13-2.16c-0.32-2.27-3.51-1.07-4.93-0.9
			C326.95,133.19,320.43,134.54,322.43,135.77z"/>
		<path class="st66" d="M213.51,126.19c1.87,1.58,2.81,5.49,1.07,7.5c-1.53,1.78-4.69,1.06-5.56-1.07
			c-0.55-1.36-0.64-2.71-0.28-4.14C209.33,126.1,211.22,124.24,213.51,126.19z"/>
		<path class="st66" d="M204.82,113.96c-3.4-0.5-4.42-8.23,0.5-5.93c3.94,1.85,1.43,8.51-1.1,5.93H204.82z"/>
		<path class="st66" d="M200.09,98.05c1.01,1.81-1.05,3.45-2.57,2.07C195.45,98.25,198.47,95.14,200.09,98.05z"/>
		<path class="st66" d="M163.05,163.09c-2.34,1.9-1.6,3.9,1.22,4.09c2.53,0.17,8.44,0.35,9.97-2.4
			C176.67,160.43,164.93,161.56,163.05,163.09z"/>
		<path class="st66" d="M128.58,170.5c1.72,1.28,5.25,1.6,7,0.25c1.59-1.22,1.41-2.83-0.5-3.54
			C133.52,166.62,125.2,167.98,128.58,170.5z"/>
		<path class="st66" d="M89.78,171.7c1.72,1.28,5.25,1.6,7,0.25c1.59-1.22,1.41-2.83-0.5-3.54
			C94.72,167.82,86.41,169.18,89.78,171.7z"/>
	</g>
</g>
</svg>
