<?xml version="1.0" encoding="utf-8"?>
<!-- Generator: Adobe Illustrator 25.0.0, SVG Export Plug-In . SVG Version: 6.00 Build 0)  -->
<svg version="1.1" id="Layer_1" xmlns="http://www.w3.org/2000/svg" xmlns:xlink="http://www.w3.org/1999/xlink" x="0px" y="0px"
	 viewBox="0 0 400 400" style="enable-background:new 0 0 400 400;" xml:space="preserve">
<style type="text/css">
	.st0{fill:#FFC612;}
	.st1{fill:#F16A23;}
	.st2{fill:#FFFFFF;}
	.st3{fill:#DF5426;}
	.st4{fill:#231F20;}
	.st5{fill:#BF4527;}
	.st6{fill:#059848;}
	.st7{fill:#C9DB2C;}
	.st8{fill:#D82B3F;}
	.st9{clip-path:url(#SVGID_2_);fill:#F59198;}
	.st10{clip-path:url(#SVGID_2_);fill:#ED5B68;}
	.st11{fill:#ED5B68;}
	.st12{fill:#759BD1;}
	.st13{fill:#4870B7;}
	.st14{fill:#1F4A88;}
	.st15{fill:#F0669B;}
	.st16{fill:#EF426D;}
	.st17{fill:#D62155;}
	.st18{fill:#F05786;}
	.st19{fill:#F36D21;}
	.st20{fill:#7F632C;}
	.st21{fill:#533C15;}
	.st22{fill:#88C540;}
	.st23{fill:#52A145;}
	.st24{fill:#FDEBA7;}
	.st25{fill:#218ACB;}
	.st26{fill:#FFF200;}
	.st27{fill:#F8971D;}
	.st28{fill:#FEBC12;}
	.st29{fill:#5BBBEA;}
	.st30{fill:#88C441;}
	.st31{fill:#FFD86C;}
	.st32{clip-path:url(#SVGID_4_);fill:#D07828;}
	.st33{clip-path:url(#SVGID_4_);fill:#AD5926;}
	.st34{fill:#EE974F;}
	.st35{fill:#AD5926;}
	.st36{fill:#69A142;}
	.st37{fill:#D76D27;}
	.st38{fill:#F78F23;}
	.st39{fill:#D07828;}
	.st40{fill:#514E4D;}
	.st41{fill:#0EA94B;}
	.st42{fill:#443E3A;}
	.st43{fill:#707071;}
	.st44{fill:#666565;}
	.st45{fill:#CDECF7;}
	.st46{fill:#97D9F0;}
	.st47{fill:#F47833;}
	.st48{fill:#E26727;}
	.st49{fill:none;}
	.st50{fill:#ED7A23;}
	.st51{fill:#D06128;}
	.st52{fill:#F05681;}
	.st53{fill:#F493B2;}
	.st54{fill:#E96A98;}
	.st55{fill:#F175AB;}
	.st56{fill:#F6B1CF;}
	.st57{fill:#CFCECE;}
	.st58{fill:#DEDDDD;}
	.st59{fill:#E9A856;}
	.st60{fill:#EBBCD6;}
	.st61{fill:#C25396;}
	.st62{fill:#DD87B8;}
	.st63{fill:#FAD176;}
	.st64{fill:#FAA93D;}
	.st65{fill:#F6851F;}
	.st66{fill:#F9CE1B;}
	.st67{clip-path:url(#SVGID_6_);fill:#571D51;}
	.st68{clip-path:url(#SVGID_6_);fill:#AB4A9C;}
	.st69{fill:#AB4A9C;}
	.st70{clip-path:url(#SVGID_8_);fill:#F16A23;}
	.st71{clip-path:url(#SVGID_8_);fill:#FFC612;}
</style>
<g>
	<g>
		<g>
			<path class="st52" d="M30.15,200.4c6.93,12.51,23.08,15.04,36.07,16.52c19.08,2.17,37.73,7.63,56.47,11.74
				c17.21,3.78,35.1,2.47,51.95,6.09c14.21,3.06,28.75,7.43,42.65,12.03c22.21,7.35,51.31,18.63,73.76,12.58
				c16.55-4.47,30.82-14.98,42.94-26.61c6.05-5.81,11.06-7.76,8.02-15.43c-4.88-12.31-21.6-17.92-33.45-17.72
				c-22.62,0.36-45.09,10.46-67.94,11.98c-21.46,1.43-42.59,1.27-64.06,0.92c-18.13-0.3-36.02-0.83-53.77-1.92
				c-24.78-1.53-49.94-3.8-74.39-7.33c-5.53-0.8-15.36-0.6-18.72-1.79L30.15,200.4z"/>
			<path class="st53" d="M298.09,257.71c-2.29,0.87-4.58,1.62-6.88,2.24c-20.46,5.52-46.55-3.29-67.51-10.38
				c-2.25-0.76-4.46-1.51-6.59-2.21c-16.81-5.56-30.34-9.38-42.59-12.01c-8.27-1.78-16.98-2.37-25.41-2.95
				c-8.74-0.6-17.78-1.22-26.54-3.14c-5.36-1.18-10.81-2.49-16.08-3.76c-13.15-3.16-26.74-6.43-40.32-7.98
				c-13.42-1.53-28.22-4.11-35.54-15.19c-0.43-0.09-0.81-0.19-1.13-0.31l0.34-0.97c-0.07-0.12-0.14-0.24-0.2-0.36l1.07-0.59
				c0.21,0.39,0.44,0.76,0.67,1.13c2.18,0.39,5.49,0.57,8.72,0.74c2.99,0.16,6.08,0.32,8.41,0.66c22.25,3.22,46.57,5.61,74.34,7.33
				c15.72,0.97,32.8,1.58,53.74,1.92c20.42,0.33,42.18,0.54,64.01-0.92c10.69-0.71,21.49-3.36,31.92-5.91
				c11.79-2.89,23.99-5.88,36.05-6.07c12.93-0.21,29.25,6.07,34.03,18.11c2.63,6.63-0.54,9.38-4.92,13.18
				c-1.04,0.9-2.11,1.83-3.24,2.92C322.04,245.06,310.1,253.14,298.09,257.71z M32.3,202.62c7.27,9.84,21.26,12.24,34,13.69
				c13.66,1.56,27.29,4.83,40.47,8c5.26,1.27,10.71,2.57,16.06,3.75c8.67,1.91,17.66,2.52,26.36,3.12
				c8.47,0.58,17.23,1.18,25.58,2.98c12.29,2.64,25.86,6.47,42.71,12.04c2.14,0.71,4.34,1.45,6.6,2.21
				c20.81,7.03,46.7,15.78,66.8,10.36c14.14-3.82,28.1-12.47,42.68-26.46c1.15-1.11,2.29-2.09,3.29-2.96
				c4.44-3.86,6.89-5.98,4.58-11.81c-4.57-11.53-20.35-17.54-32.87-17.34c-11.92,0.19-24.05,3.16-35.77,6.03
				c-10.49,2.57-21.34,5.23-32.13,5.95c-21.87,1.46-43.66,1.25-64.11,0.92c-20.96-0.34-38.06-0.95-53.8-1.92
				c-27.8-1.71-52.15-4.11-74.44-7.34c-2.27-0.33-5.34-0.49-8.3-0.65C37.17,203.05,34.43,202.9,32.3,202.62z"/>
		</g>
		<path class="st53" d="M341.07,197.67c6.93-16.17,25.95,8.51,25.46,18.03c-0.77,15.09-18.09,17.82-30.29,13.83L341.07,197.67z"/>
		<path class="st53" d="M310.29,234.19c-1.64-12.27,2.87-24.37,1.8-36.54c-0.61-6.97-6.18-15.51,0.68-21.28
			c10.22-8.6,27.76,8.81,31.91,17.34c6.59,13.55,8.91,34.23-1.88,46.37C331.31,253,312.77,252.83,310.29,234.19z"/>
		<path class="st53" d="M362.23,205.26c6.77-1.63,12.7,2.63,12.48,9.38c-5.04,5.02-21.1,5.97-15.74-4.22L362.23,205.26z"/>
		<path class="st53" d="M350.38,195.86c1.05-3.85,4.78-5.93,8.7-6.62c-1.39,3.22-4.23,6.04-4.97,9.55L350.38,195.86z"/>
		<path class="st53" d="M369.31,211.27c-1.31-1.71-0.96-4.71,0.77-7.17c2.34,2.8,2.31,6.42,2.96,10.1L369.31,211.27z"/>
		<path class="st54" d="M320.58,175.89c10.62,3.38,8.37,28.9,9.09,37.43c0.88,10.46,4.07,27.9-8.13,33.37
			c0.92-12.66-0.34-25.97-0.74-38.7c-0.26-8.3-4.52-25.08-0.76-31.8c0.92-0.06,0.89,0.66,1.87,0.92L320.58,175.89z"/>
		<path class="st53" d="M225.4,164.73c-17.46,15.7-29.43,26.88-52.03,35.48c-24.59,9.36-48.18,9.33-74.05,6.06
			c-24.05-3.04-53.65-12.64-77.73-8.07C40,210.58,72.84,211.74,94.5,214.29c31.48,3.7,62.94,11.83,93.75,18.15
			c22.68,4.66,42.1,12.28,63.31,21.52c20.35,8.87,45.79,20.62,64.23,0.72c16.91-18.24,14-53,4.63-73.66
			C303.65,144.02,253.57,139.4,225.4,164.73z"/>
		<path class="st53" d="M79.77,202.03c-4.59,1.58-8-6.76-10.65-11.44c9.17-0.19,14.56,12.79,18.96,16.11L79.77,202.03z"/>
		<path class="st53" d="M120.25,213.06c-2.26-4.3-6.68-8.84-6.03-14.1c5.96,2.58,10.39,10.19,14.31,15.3L120.25,213.06z"/>
		<path class="st53" d="M168.02,210.53c-1.78-4.65-4.23-10.72-7.12-14.47c4.58-6.38,19.54,7.97,22.72,12.01L168.02,210.53z"/>
		<path class="st53" d="M213.24,178.5c1.23-1.42-3.54-11.19-4.79-15.3c5.42,2.12,10.03,9.94,15.6,9.43L213.24,178.5z"/>
		<path class="st53" d="M243.96,156.35c0.08-6.02,0.28-12.99,2.18-18.82c3.93,3.49,7.25,18.74,9.61,17.81L243.96,156.35z"/>
		<path class="st53" d="M291.76,160.76c0.91-5.61,14.96-13.47,20.42-17.16c7.99-5.39,16.82-10.33,25.91-13.57
			c-11.56,10.9-28.39,26.46-35.62,40.57L291.76,160.76z"/>
		<path class="st53" d="M169.61,223.84c0.4,4.78-2.7,13.78-2.68,20.03c3.41-3.69,8.88-14.45,12.41-15.04L169.61,223.84z"/>
		<path class="st53" d="M203.15,231.94c-0.57,5.54,0.01,16.13-0.56,23.36c3.6-5.23,6.07-13.82,11.64-17.14L203.15,231.94z"/>
		<path class="st53" d="M237.93,238.71c-0.69,5.93-1.53,19.52,3.27,24.55c0.83-5.26,3.83-15.02,9.14-17.1L237.93,238.71z"/>
		<path class="st53" d="M329.65,180.26c0.62-2.55,2.4-4.81,4.59-5.94c-0.76,4.09-0.46,8.75-0.18,12.96L329.65,180.26z"/>
		<path class="st53" d="M334.18,244.67c2.34,2.18,4.16,4.63,6.39,7.06c1.32-3.59-0.15-8.18,1.39-11.77L334.18,244.67z"/>
		<path class="st53" d="M356.36,227.52c0.71,2.54,2.51,5.72,3.34,8.86c0.92-3.34,1.65-6.77,2.27-10.13L356.36,227.52z"/>
		<path class="st53" d="M297.7,258.57c-0.42,3.33,1.93,7.74,4.96,10.22c1.53-3.85,0.59-9.07,3.69-12.65L297.7,258.57z"/>
		<path class="st54" d="M346.4,199.11c2.22,7.2,4.44,18.63,2.21,26c6.13-10.21,4.67-23.32-3.36-29.04L346.4,199.11z"/>
		<path class="st54" d="M240.85,175.59c1.5,1.17,2.34,2.92,3.47,4.41c0.69,0.9,1.53,1.59,2.53,2.12c0.7,0.37,0.88,0.56,1.3-0.17
			c0.34-0.61,0.74-0.81,0.63-1.55c-0.28-1.97-1.89-3.75-2.17-5.7c0.08,0.53-0.02,0.69-0.32,1.13c-0.42,0.6-0.35,1.06-1.13,0.8
			c-1.08-0.36-1.96-1.15-2.71-1.97c-1.37-1.51-2.12-3.49-3.76-4.77c0.49,0.38,0.84,2.29,1.06,2.86
			C239.97,173.36,240.31,175.17,240.85,175.59L240.85,175.59z"/>
		<path class="st54" d="M252.49,174.2c0.96,2.39,2.38,4.45,4.76,5.59c-0.06-0.03-0.3-0.85-0.3-0.84c-0.25-0.67-0.5-1.35-0.76-2.02
			c-0.26-0.67-0.51-1.34-0.78-2.01c-0.01-0.03-0.24-0.78-0.34-0.83c-2.03-0.98-3.59-2.74-4.43-4.83c-0.42-1.04,0.29,0.89,0.35,1.04
			C251.48,171.6,251.97,172.91,252.49,174.2L252.49,174.2z"/>
		<path class="st54" d="M261.99,169.5c0.1,0.25,0.19,0.51,0.29,0.76c0.06,0.15,1.08,2.85,1.11,2.84c0.03-0.01-1-2.71-1.06-2.86
			c-0.1-0.25-0.19-0.51-0.29-0.76c-0.06-0.15-1.08-2.85-1.11-2.84C260.9,166.65,261.93,169.35,261.99,169.5L261.99,169.5z"/>
	</g>
	<path class="st54" d="M252.45,219.77c0.35,1.05,0.04,2.12,0.34,3.14c0.73,2.49,1.81,4.91,2.74,7.34c0.1,0.26,1.91,5.04,1.97,5.02
		c0.06-0.02-1.77-4.8-1.87-5.06c-0.29-0.76-0.58-1.52-0.87-2.28c0.62,1.69,1.25,3.37,1.87,5.06c-0.13-0.45-0.1-0.91-0.09-1.38
		c0.02-0.75-0.13-1.43-0.36-2.13c-0.7-2.09-1.54-4.15-2.33-6.21c-0.39-1-0.77-2.01-1.17-3
		C252.82,220.62,252.21,219.07,252.45,219.77L252.45,219.77z"/>
	<path class="st54" d="M268.28,217.89c-0.13,1.99,0.64,3.91,0.51,5.9c-0.02,0.34,0.43,1.24,0.53,1.49c0.44,1.19,0.89,2.38,1.34,3.57
		c0.45,1.19,0.91,2.38,1.37,3.56c0.06,0.16,0.62,1.2,0.6,1.46c0.13-1.99-0.64-3.91-0.51-5.9c0.02-0.34-0.43-1.24-0.53-1.49
		c-0.44-1.19-0.89-2.38-1.34-3.57c-0.45-1.19-0.91-2.38-1.37-3.56C268.81,219.19,268.26,218.15,268.28,217.89L268.28,217.89z"/>
	<path class="st54" d="M277.92,160.82c-0.1-0.25-0.19-0.51-0.29-0.76c-2.17-5.7-2.27-5.66-0.1,0.04
		c3.15,8.28,8.59,14.92,11.59,23.37c3.07,8.66,5.32,16.13,5.6,25.17c0.22,7.11-2.75,13.67-2.01,20.84
		c0.36,3.48,3.48,6.65,3.84,10.08c-0.85-8.1,2.16-15.92,1.91-24.09c-0.22-7.13-2.6-14.15-5.04-20.78
		c-4.64-12.62-8.44-27.64-17.18-38.12c0.66,1.67,1.31,3.35,1.97,5.02c-0.19-0.51-0.39-1.01-0.58-1.52c-2.17-5.7-2.27-5.66-0.1,0.04
		c0.1,0.25,0.19,0.51,0.29,0.76C279.99,166.56,280.09,166.52,277.92,160.82L277.92,160.82z"/>
	<path class="st54" d="M298.79,176.91c1.12,2.18,2.24,4.37,3.37,6.55c-1.2-3.13-2.4-6.26-3.6-9.38c2.74,7.68,4.59,16.7,5.99,24.78
		c0.98,5.62-0.78,11.51,0.47,17.22c0.76,3.48,3.08,6.62,3.84,10.08c-1.51-6.89,0.09-13.97-1.11-20.9
		c-1.1-6.32-2.68-12.83-4.57-18.98c-2.09-6.78-5-13.17-8.23-19.45C296.57,170,297.15,173.73,298.79,176.91L298.79,176.91z"/>
	<path class="st54" d="M312.73,193.04c2.21,6.23,2.31,13.08,1.39,19.57c-0.18,1.26,1.43,3.92,1.87,5.06
		c0.41,1.07,2.14,3.86,1.97,5.02c1.01-7.13,0.55-14.17-1.87-20.96c-0.82-2.32-1.72-4.61-2.61-6.9
		C313.39,194.55,312.07,191.16,312.73,193.04L312.73,193.04z"/>
</g>
</svg>
